<?xml version="1.0" encoding="utf-8"?>
<!-- Generator: Adobe Illustrator 16.0.3, SVG Export Plug-In . SVG Version: 6.00 Build 0)  -->
<!DOCTYPE svg PUBLIC "-//W3C//DTD SVG 1.1//EN" "http://www.w3.org/Graphics/SVG/1.1/DTD/svg11.dtd">
<svg version="1.1" id="Layer_1" xmlns="http://www.w3.org/2000/svg" xmlns:xlink="http://www.w3.org/1999/xlink" x="0px" y="0px"
	 width="74px" height="68px" viewBox="0 0 74 68" enable-background="new 0 0 74 68" xml:space="preserve">
<path fill-rule="evenodd" clip-rule="evenodd" fill="#009933" d="M74,0.89c-8.77,8.22-20.689,20.44-27.891,30.67
	c-3.369,4.879-6.969,9.77-9.899,14.661c-4.27,6.67-8.54,14.67-11.92,21.559c0,0.221,0,0.221-0.45,0.221C23.17,68,0,41.33,0,41.109
	c0-0.67,0.67-0.889,0.9-1.109l19.12,10.67C27.67,40,37.34,28,48.58,18c2.93-2.89,6.3-5.78,9.68-8.22C59.83,8.44,71.529,0,72.88,0
	C73.55,0,73.55,0.44,74,0.89z"/>
</svg>
