<?xml version="1.0" encoding="utf-8"?>
<!-- Generator: Adobe Illustrator 16.0.3, SVG Export Plug-In . SVG Version: 6.00 Build 0)  -->
<!DOCTYPE svg PUBLIC "-//W3C//DTD SVG 1.1//EN" "http://www.w3.org/Graphics/SVG/1.1/DTD/svg11.dtd">
<svg version="1.1" id="Layer_1" xmlns="http://www.w3.org/2000/svg" xmlns:xlink="http://www.w3.org/1999/xlink" x="0px" y="0px"
	 width="18px" height="18px" viewBox="0 0 18 18" enable-background="new 0 0 18 18" xml:space="preserve">
<g>
	<path fill-rule="evenodd" clip-rule="evenodd" fill="#FFFFFF" d="M16.37,9.35L16.37,9.35l0.03-0.04l0.01-0.01l0.02-0.04l0,0
		l0.021-0.05h0.01l0.011-0.05h0.01l0.01-0.05V9.09l0.01-0.04V9V8.94L16.49,8.9V8.89l-0.01-0.05h-0.01L16.46,8.79l-0.01-0.01
		L16.43,8.74V8.73l-0.02-0.04L16.4,8.68l-0.03-0.03V8.64L16.33,8.6l-3.26-3.23c-0.23-0.22-0.58-0.22-0.811,0
		c-0.22,0.22-0.22,0.58,0,0.8l2.301,2.27H5.43C5.12,8.44,4.86,8.69,4.86,9s0.26,0.56,0.57,0.56h9.13l-2.281,2.26
		c-0.219,0.22-0.219,0.57,0,0.789c0.111,0.111,0.261,0.16,0.4,0.16c0.15,0,0.291-0.049,0.4-0.16L16.33,9.4L16.37,9.35z"/>
	<path fill-rule="evenodd" clip-rule="evenodd" fill="#FFFFFF" d="M4.57,2.12h4.22c0.32,0,0.57-0.25,0.57-0.56S9.11,1,8.79,1H4.57
		C2.88,1,1.5,2.37,1.5,4.04v9.92C1.5,15.63,2.88,17,4.57,17h4.15c0.32,0,0.57-0.25,0.57-0.561c0-0.31-0.25-0.56-0.57-0.56H4.57
		c-1.07,0-1.94-0.86-1.94-1.92V4.04C2.63,2.98,3.5,2.12,4.57,2.12z"/>
</g>
</svg>
