<?xml version="1.0" encoding="utf-8"?>
<!-- Generator: Adobe Illustrator 16.0.3, SVG Export Plug-In . SVG Version: 6.00 Build 0)  -->
<!DOCTYPE svg PUBLIC "-//W3C//DTD SVG 1.1//EN" "http://www.w3.org/Graphics/SVG/1.1/DTD/svg11.dtd">
<svg version="1.1"
	 id="Layer_1" sodipodi:docname="Kevish_6.svg" inkscape:version="0.48.4 r9939" xmlns:cc="http://creativecommons.org/ns#" xmlns:svg="http://www.w3.org/2000/svg" xmlns:rdf="http://www.w3.org/1999/02/22-rdf-syntax-ns#" xmlns:inkscape="http://www.inkscape.org/namespaces/inkscape" xmlns:dc="http://purl.org/dc/elements/1.1/" xmlns:sodipodi="http://sodipodi.sourceforge.net/DTD/sodipodi-0.dtd"
	 xmlns="http://www.w3.org/2000/svg" xmlns:xlink="http://www.w3.org/1999/xlink" x="0px" y="0px" width="93.221px" height="70px"
	 viewBox="637.317 483.063 93.221 70" enable-background="new 637.317 483.063 93.221 70" xml:space="preserve">
<sodipodi:namedview  fit-margin-bottom="0" fit-margin-right="0" inkscape:window-maximized="1" inkscape:pageopacity="0" inkscape:window-y="-8" inkscape:window-height="962" inkscape:window-width="1280" inkscape:window-x="-8" inkscape:current-layer="Layer_1" inkscape:pageshadow="2" fit-margin-top="0" fit-margin-left="0" bordercolor="#666666" objecttolerance="10" pagecolor="#ffffff" inkscape:zoom="0.30805445" guidetolerance="10" inkscape:cy="519.08232" inkscape:cx="668.34207" borderopacity="1" showgrid="false" gridtolerance="10" id="namedview13">
	</sodipodi:namedview>
<g id="g3275" transform="matrix(11.805934,0,0,-11.805934,-1080.5712,2956.4947)">
	<path id="path142" inkscape:connector-curvature="0" fill="#FFFFFF" d="M148.795,204.599c-0.263,0.738-0.661,0.939-1.318,0.939
		h-0.649l-0.099,0.275c-0.056,0.156,0.014,0.267,0.161,0.267c0.184,0,0.305-0.101,0.37-0.283c0.004-0.01,0.027-0.03,0.051-0.03
		h1.011c0.037,0,0.039,0.019,0.035,0.029c-0.194,0.528-0.459,0.789-0.997,0.865c-0.245,0.039-0.482,0.039-0.713,0.039
		c-1.267,0-1.317-0.249-0.807-1.626c0.466-1.259,0.802-1.497,1.985-1.497c0.242,0,0.49,0.011,0.705,0.073
		C148.962,203.777,148.972,204.101,148.795,204.599 M147.71,204.442c0.054-0.151-0.005-0.252-0.147-0.252
		c-0.158,0-0.278,0.073-0.342,0.252l-0.236,0.657c0,0,0.095,0.002,0.253,0.002c0.142,0,0.27-0.095,0.324-0.246L147.71,204.442
		L147.71,204.442z"/>
	<path id="path146" inkscape:connector-curvature="0" fill="#FFFFFF" d="M145.524,207.305c0,1.251,1.575,2.185,3.396,2.192
		c0.15,0.001,0.257-0.01,0.388-0.024c0.041-0.004,0.059-0.044,0.031-0.087c-0.834-1.263-2.461-2.126-3.737-2.166
		C145.543,207.219,145.524,207.233,145.524,207.305"/>
	<path id="path150" inkscape:connector-curvature="0" fill="#FFFFFF" d="M152.182,206.547c-0.402-0.84-1.549-1.505-2.994-1.584
		c-0.034-0.002-0.067,0.009-0.082,0.047l-0.603,1.579c-0.019,0.049,0.004,0.084,0.052,0.084h3.564
		C152.177,206.673,152.202,206.589,152.182,206.547"/>
	<path id="path154" inkscape:connector-curvature="0" fill="#FFFFFF" d="M152.18,207.235h-3.626c-0.071,0-0.08,0.056-0.06,0.087
		l1.332,2.04c0.025,0.038,0.061,0.052,0.117,0.04c1.161-0.258,2.26-1.133,2.31-2.088
		C152.256,207.267,152.241,207.235,152.18,207.235"/>
	<path id="path158" inkscape:connector-curvature="0" fill="#FFFFFF" d="M151.368,204.049c0.004-0.01-0.002-0.018-0.011-0.018
		h-0.372c-0.011,0-0.015,0.004-0.018,0.011l-0.205,0.537c-0.004,0.01,0.002,0.018,0.011,0.018h0.372
		c0.011,0,0.015-0.004,0.018-0.011L151.368,204.049L151.368,204.049z"/>
	<path id="path162" inkscape:connector-curvature="0" fill="#FFFFFF" d="M152.544,203.621c0.005-0.014,0-0.022-0.009-0.022h-0.372
		H151.7c-0.011,0-0.015,0.004-0.018,0.011l-0.106,0.28c-0.004,0.011,0.001,0.019,0.01,0.019h0.317c0.009,0,0.015,0.008,0.011,0.018
		l-0.084,0.221c-0.028,0.061-0.075,0.086-0.136,0.086h-0.083h-0.152c-0.011,0-0.015,0.004-0.018,0.011l-0.128,0.335
		c-0.004,0.01,0.002,0.018,0.011,0.018l0.455,0l0.013,0c0.151,0,0.326-0.133,0.387-0.293l0.146-0.384
		c0.003-0.007,0.007-0.011,0.018-0.011h0.078c0.011,0,0.015-0.004,0.018-0.011L152.544,203.621z"/>
	<path id="path166" inkscape:connector-curvature="0" fill="#FFFFFF" d="M152.564,203.89c-0.004,0.01,0.002,0.018,0.011,0.018h0.249
		c0.064,0,0.093,0.029,0.066,0.099l-0.048,0.127c-0.027,0.07-0.077,0.099-0.141,0.099h-0.251c-0.014,0-0.018,0.004-0.02,0.012
		l-0.125,0.329c-0.005,0.014,0,0.023,0.009,0.023h0.484c0.15,0,0.326-0.133,0.387-0.293l0.156-0.413
		c0.06-0.16-0.015-0.293-0.165-0.293l-0.488,0c-0.011,0-0.015,0.004-0.018,0.011L152.564,203.89L152.564,203.89z"/>
	<path id="path170" inkscape:connector-curvature="0" fill="#FFFFFF" d="M150.45,203.896c0.053,0,0.053,0.024,0.038,0.063
		l-0.23,0.608l-0.004,0.012c-0.004,0.01,0.002,0.018,0.011,0.018h0.334c0.011,0,0.015-0.004,0.018-0.011l0.241-0.635l0.039-0.105
		c0.051-0.135-0.012-0.247-0.139-0.247h-0.925c-0.127,0-0.275,0.112-0.327,0.247l-0.277,0.733c-0.004,0.01,0.002,0.018,0.011,0.018
		h0.334c0.011,0,0.015-0.004,0.018-0.011l0.241-0.635c0.014-0.036,0.042-0.055,0.077-0.055h0.072c0.008,0,0.014,0.007,0.012,0.016
		l-0.253,0.668c-0.004,0.01,0.002,0.018,0.011,0.018h0.334c0.011,0,0.015-0.004,0.018-0.011l0.254-0.669
		c0.007-0.017,0.007-0.021,0.028-0.021H150.45L150.45,203.896z"/>
</g>
</svg>
